# Blender v2.93.0 OBJ File: ''
# www.blender.org
mtllib crystalobj.mtl
o Plane
v 0.000000 3.000000 -1.000000
v 0.000000 0.000000 0.000000
v 1.000000 3.000000 0.000000
v 0.000000 3.000000 1.000000
v -1.000000 3.000000 0.000000
v 0.000000 6.000000 0.000000
vt 0.000000 0.000000
vt 0.000000 0.000000
vt 0.000000 0.000000
vt 0.000000 0.000000
vt 0.000000 0.000000
vt 0.000000 0.000000
vn 0.6882 -0.2294 -0.6882
vn 0.6882 -0.2294 0.6882
vn -0.6882 -0.2294 0.6882
vn -0.6882 -0.2294 -0.6882
vn 0.6882 0.2294 -0.6882
vn 0.6882 0.2294 0.6882
vn -0.6882 0.2294 0.6882
vn -0.6882 0.2294 -0.6882
usemtl None
s off
f 2/1/1 1/2/1 3/3/1
f 2/1/2 3/3/2 4/4/2
f 5/5/3 2/1/3 4/4/3
f 5/5/4 1/2/4 2/1/4
f 3/3/5 1/2/5 6/6/5
f 3/3/6 6/6/6 4/4/6
f 4/4/7 6/6/7 5/5/7
f 1/2/8 5/5/8 6/6/8
